<svg width="40" height="40" viewBox="0 0 40 40" fill="none" xmlns="http://www.w3.org/2000/svg">
<path d="M27.3333 4C27.3333 1.79086 25.5425 0 23.3333 0H16.6667C14.4575 0 12.6667 1.79086 12.6667 4V8.66666C12.6667 10.8758 10.8758 12.6667 8.66667 12.6667H4C1.79086 12.6667 0 14.4575 0 16.6667V23.3333C0 25.5425 1.79086 27.3333 4 27.3333H8.66666C10.8758 27.3333 12.6667 29.1242 12.6667 31.3333V36C12.6667 38.2091 14.4575 40 16.6667 40H23.3333C25.5425 40 27.3333 38.2091 27.3333 36V31.3333C27.3333 29.1242 29.1242 27.3333 31.3333 27.3333H36C38.2091 27.3333 40 25.5425 40 23.3333V16.6667C40 14.4575 38.2091 12.6667 36 12.6667H31.3333C29.1242 12.6667 27.3333 10.8758 27.3333 8.66667V4ZM33.3333 15.3333C35.5425 15.3333 37.3333 17.1242 37.3333 19.3333V20.6667C37.3333 22.8758 35.5425 24.6667 33.3333 24.6667H28.6667C26.4575 24.6667 24.6667 26.4575 24.6667 28.6667V33.3333C24.6667 35.5425 22.8758 37.3333 20.6667 37.3333H19.3333C17.1242 37.3333 15.3333 35.5425 15.3333 33.3333V28.6667C15.3333 26.4575 13.5425 24.6667 11.3333 24.6667H6.66667C4.45753 24.6667 2.66667 22.8758 2.66667 20.6667V19.3333C2.66667 17.1242 4.45753 15.3333 6.66667 15.3333H11.3333C13.5425 15.3333 15.3333 13.5425 15.3333 11.3333V6.66667C15.3333 4.45753 17.1242 2.66667 19.3333 2.66667H20.6667C22.8758 2.66667 24.6667 4.45753 24.6667 6.66667V11.3333C24.6667 13.5425 26.4575 15.3333 28.6667 15.3333H33.3333Z" fill="#FFAAAA"/>
</svg>
