<svg width="148" height="26" viewBox="0 0 148 26" fill="none" xmlns="http://www.w3.org/2000/svg">
<path d="M34.3513 12.904C34.7806 12.904 35.0886 12.9973 35.2753 13.184C35.4806 13.3707 35.5833 13.6133 35.5833 13.912C35.5833 14.3973 35.4339 14.8267 35.1353 15.2C34.8553 15.5733 34.4073 15.7693 33.7913 15.788C32.3166 15.8067 30.9913 15.6947 29.8153 15.452C28.5086 18.2333 26.9313 20.548 25.0833 22.396C23.2539 24.2253 21.4433 25.14 19.6513 25.14C18.0086 25.14 16.7766 24.272 15.9553 22.536C15.1339 20.7813 14.6673 18.4387 14.5553 15.508C13.4353 18.756 12.1659 21.1733 10.7473 22.76C9.34727 24.3467 7.85393 25.14 6.26727 25.14C4.47527 25.14 3.12193 24.0293 2.20727 21.808C1.2926 19.568 0.835266 16.5627 0.835266 12.792C0.835266 10.048 1.07793 7.03333 1.56327 3.748C1.69393 2.81467 1.92727 2.17067 2.26327 1.816C2.61793 1.44267 3.1686 1.256 3.91527 1.256C4.47527 1.256 4.9046 1.37733 5.20327 1.62C5.5206 1.86267 5.67927 2.31067 5.67927 2.964C5.67927 3.09467 5.6606 3.34667 5.62327 3.72C5.06327 7.54667 4.78327 10.804 4.78327 13.492C4.78327 15.9933 4.99793 17.9253 5.42727 19.288C5.8566 20.6507 6.43527 21.332 7.16327 21.332C7.8166 21.332 8.6006 20.6507 9.51527 19.288C10.4486 17.9067 11.3726 15.872 12.2873 13.184C13.2019 10.4773 13.9766 7.25733 14.6113 3.524C14.7606 2.66533 15.0313 2.07733 15.4233 1.76C15.8339 1.424 16.3846 1.256 17.0753 1.256C17.6539 1.256 18.0739 1.38667 18.3353 1.648C18.6153 1.89067 18.7553 2.264 18.7553 2.768C18.7553 3.06667 18.7366 3.3 18.6993 3.468C18.1766 6.51067 17.9153 9.55333 17.9153 12.596C17.9153 14.668 17.9806 16.32 18.1113 17.552C18.2606 18.784 18.5313 19.7267 18.9233 20.38C19.3339 21.0147 19.9219 21.332 20.6873 21.332C21.5833 21.332 22.5819 20.66 23.6833 19.316C24.7846 17.9533 25.7926 16.264 26.7073 14.248C25.5686 13.5387 24.7099 12.624 24.1313 11.504C23.5526 10.3653 23.2633 9.05867 23.2633 7.584C23.2633 6.10933 23.4873 4.868 23.9353 3.86C24.4019 2.83333 25.0273 2.068 25.8113 1.564C26.6139 1.06 27.5006 0.807999 28.4713 0.807999C29.6659 0.807999 30.6086 1.23733 31.2993 2.096C32.0086 2.95467 32.3633 4.13067 32.3633 5.624C32.3633 7.73333 31.9059 10.076 30.9913 12.652C31.9433 12.82 33.0633 12.904 34.3513 12.904ZM26.0913 7.388C26.0913 9.21733 26.6793 10.5707 27.8553 11.448C28.5833 9.35733 28.9473 7.63067 28.9473 6.268C28.9473 5.484 28.8446 4.91467 28.6393 4.56C28.4339 4.18667 28.1539 4 27.7993 4C27.2953 4 26.8846 4.29867 26.5673 4.896C26.2499 5.47467 26.0913 6.30533 26.0913 7.388ZM47.1416 16.404C47.3842 16.404 47.5709 16.5253 47.7016 16.768C47.8322 17.0107 47.8976 17.3187 47.8976 17.692C47.8976 18.588 47.6269 19.12 47.0856 19.288C45.9656 19.68 44.7336 19.904 43.3896 19.96C43.0349 21.528 42.3349 22.788 41.2896 23.74C40.2442 24.6733 39.0589 25.14 37.7336 25.14C36.6136 25.14 35.6522 24.8693 34.8496 24.328C34.0656 23.7867 33.4682 23.068 33.0576 22.172C32.6469 21.276 32.4416 20.3053 32.4416 19.26C32.4416 17.8413 32.7122 16.5813 33.2536 15.48C33.7949 14.36 34.5416 13.492 35.4936 12.876C36.4456 12.2413 37.5002 11.924 38.6576 11.924C40.0762 11.924 41.2149 12.4187 42.0736 13.408C42.9509 14.3787 43.4642 15.5827 43.6136 17.02C44.4909 16.964 45.5362 16.7773 46.7496 16.46C46.8989 16.4227 47.0296 16.404 47.1416 16.404ZM37.9576 22.172C38.5549 22.172 39.0682 21.9293 39.4976 21.444C39.9456 20.9587 40.2442 20.2587 40.3936 19.344C39.8149 18.952 39.3669 18.4387 39.0496 17.804C38.7509 17.1693 38.6016 16.4973 38.6016 15.788C38.6016 15.4893 38.6296 15.1907 38.6856 14.892H38.5456C37.7989 14.892 37.1736 15.256 36.6696 15.984C36.1842 16.6933 35.9416 17.7013 35.9416 19.008C35.9416 20.0347 36.1376 20.8187 36.5296 21.36C36.9402 21.9013 37.4162 22.172 37.9576 22.172ZM47.4824 25.14C46.7731 25.14 46.2691 24.7667 45.9704 24.02C45.6904 23.2733 45.5504 22.0787 45.5504 20.436C45.5504 18.0093 45.8957 15.704 46.5864 13.52C46.7544 12.9787 47.0251 12.5867 47.3984 12.344C47.7904 12.0827 48.3317 11.952 49.0224 11.952C49.3957 11.952 49.6571 11.9987 49.8064 12.092C49.9557 12.1853 50.0304 12.3627 50.0304 12.624C50.0304 12.9227 49.8904 13.5947 49.6104 14.64C49.4237 15.3867 49.2744 16.04 49.1624 16.6C49.0504 17.1413 48.9571 17.8227 48.8824 18.644C49.3864 17.188 49.9837 15.956 50.6744 14.948C51.3837 13.94 52.1024 13.1933 52.8304 12.708C53.5771 12.204 54.2771 11.952 54.9304 11.952C55.5837 11.952 56.0411 12.1013 56.3024 12.4C56.5824 12.6987 56.7224 13.156 56.7224 13.772C56.7224 14.3693 56.5451 15.452 56.1904 17.02C56.0411 17.692 55.9384 18.196 55.8824 18.532C56.8157 16.236 57.8517 14.5653 58.9904 13.52C60.1291 12.4747 61.1931 11.952 62.1824 11.952C63.3957 11.952 64.0024 12.5587 64.0024 13.772C64.0024 14.5 63.7971 15.816 63.3864 17.72C63.0317 19.344 62.8544 20.4173 62.8544 20.94C62.8544 21.6867 63.1251 22.06 63.6664 22.06C64.0397 22.06 64.4784 21.836 64.9824 21.388C65.5051 20.9213 66.1957 20.1747 67.0544 19.148C67.2784 18.8867 67.5304 18.756 67.8104 18.756C68.0531 18.756 68.2397 18.868 68.3704 19.092C68.5197 19.316 68.5944 19.624 68.5944 20.016C68.5944 20.7627 68.4171 21.3413 68.0624 21.752C67.2597 22.7413 66.3917 23.5533 65.4584 24.188C64.5437 24.8227 63.4984 25.14 62.3224 25.14C61.3704 25.14 60.6517 24.8693 60.1664 24.328C59.6811 23.768 59.4384 22.9653 59.4384 21.92C59.4384 21.3973 59.5691 20.464 59.8304 19.12C60.0731 17.944 60.1944 17.132 60.1944 16.684C60.1944 16.3853 60.0917 16.236 59.8864 16.236C59.6437 16.236 59.2984 16.5533 58.8504 17.188C58.4024 17.804 57.9544 18.6253 57.5064 19.652C57.0584 20.6787 56.6944 21.7613 56.4144 22.9C56.2091 23.796 55.9664 24.3933 55.6864 24.692C55.4251 24.9907 54.9957 25.14 54.3984 25.14C53.7824 25.14 53.3157 24.8507 52.9984 24.272C52.6997 23.6747 52.5504 22.956 52.5504 22.116C52.5504 21.4067 52.6437 20.38 52.8304 19.036C52.9797 17.8413 53.0544 17.0573 53.0544 16.684C53.0544 16.3853 52.9517 16.236 52.7464 16.236C52.4664 16.236 52.1117 16.572 51.6824 17.244C51.2531 17.916 50.8331 18.7747 50.4224 19.82C50.0304 20.8653 49.7131 21.892 49.4704 22.9C49.2651 23.7773 49.0224 24.3747 48.7424 24.692C48.4811 24.9907 48.0611 25.14 47.4824 25.14ZM69.7743 25.14C68.617 25.14 67.693 24.72 67.0023 23.88C66.3117 23.04 65.9663 21.9387 65.9663 20.576C65.9663 19.0827 66.3117 17.6733 67.0023 16.348C67.693 15.004 68.6077 13.9307 69.7463 13.128C70.9037 12.3067 72.1263 11.896 73.4143 11.896C73.825 11.896 74.0957 11.98 74.2263 12.148C74.3757 12.2973 74.497 12.5773 74.5903 12.988C74.9823 12.9133 75.393 12.876 75.8223 12.876C76.737 12.876 77.1943 13.2027 77.1943 13.856C77.1943 14.248 77.0543 15.1813 76.7743 16.656C76.345 18.8027 76.1303 20.296 76.1303 21.136C76.1303 21.416 76.1957 21.64 76.3263 21.808C76.4757 21.976 76.6623 22.06 76.8863 22.06C77.241 22.06 77.6703 21.836 78.1743 21.388C78.6783 20.9213 79.3597 20.1747 80.2183 19.148C80.4423 18.8867 80.6943 18.756 80.9743 18.756C81.217 18.756 81.4037 18.868 81.5343 19.092C81.6837 19.316 81.7583 19.624 81.7583 20.016C81.7583 20.7627 81.581 21.3413 81.2263 21.752C80.461 22.704 79.649 23.5067 78.7903 24.16C77.9317 24.8133 77.101 25.14 76.2983 25.14C75.6823 25.14 75.113 24.9347 74.5903 24.524C74.0863 24.0947 73.7037 23.516 73.4423 22.788C72.4717 24.356 71.249 25.14 69.7743 25.14ZM70.7823 22.312C71.193 22.312 71.585 22.0693 71.9583 21.584C72.3317 21.0987 72.6023 20.4547 72.7703 19.652L73.8063 14.5C73.0223 14.5187 72.2943 14.8173 71.6223 15.396C70.969 15.956 70.4463 16.7027 70.0543 17.636C69.6623 18.5693 69.4663 19.5587 69.4663 20.604C69.4663 21.1827 69.5783 21.612 69.8023 21.892C70.045 22.172 70.3717 22.312 70.7823 22.312ZM81.4707 25.14C80.7613 25.14 80.2573 24.7667 79.9587 24.02C79.6787 23.2733 79.5387 22.0787 79.5387 20.436C79.5387 18.0093 79.884 15.704 80.5747 13.52C80.7427 12.9787 81.0133 12.5867 81.3867 12.344C81.7787 12.0827 82.32 11.952 83.0107 11.952C83.384 11.952 83.6453 11.9987 83.7947 12.092C83.944 12.1853 84.0187 12.3627 84.0187 12.624C84.0187 12.9227 83.8787 13.5947 83.5987 14.64C83.412 15.3867 83.2627 16.04 83.1507 16.6C83.0387 17.16 82.9453 17.8507 82.8707 18.672C83.4867 17.0667 84.1773 15.76 84.9427 14.752C85.708 13.744 86.4547 13.0253 87.1827 12.596C87.9293 12.1667 88.6107 11.952 89.2267 11.952C89.824 11.952 90.272 12.1107 90.5707 12.428C90.888 12.7267 91.0467 13.1747 91.0467 13.772C91.0467 14.2573 90.944 15.172 90.7387 16.516C90.552 17.6547 90.4027 18.7373 90.2907 19.764C90.1787 20.772 90.1227 21.9013 90.1227 23.152C90.1227 23.8613 89.9733 24.3747 89.6747 24.692C89.3947 24.9907 88.928 25.14 88.2747 25.14C87.6587 25.14 87.2107 24.9813 86.9307 24.664C86.6507 24.3467 86.5107 23.8707 86.5107 23.236C86.5107 22.4893 86.6413 21.2573 86.9027 19.54C87.1267 18.0467 87.2387 17.0947 87.2387 16.684C87.2387 16.3853 87.136 16.236 86.9307 16.236C86.688 16.236 86.3427 16.5533 85.8947 17.188C85.4653 17.804 85.0173 18.6253 84.5507 19.652C84.1027 20.6787 83.7387 21.7613 83.4587 22.9C83.2533 23.7773 83.0107 24.3747 82.7307 24.692C82.4693 24.9907 82.0493 25.14 81.4707 25.14ZM105.803 25.14C103.974 25.14 102.546 24.6267 101.519 23.6C100.511 22.5547 100.007 21.1827 100.007 19.484C100.007 17.972 100.306 16.6467 100.903 15.508C101.501 14.3693 102.275 13.492 103.227 12.876C104.179 12.26 105.178 11.952 106.223 11.952C107.25 11.952 108.043 12.26 108.603 12.876C109.182 13.4733 109.471 14.248 109.471 15.2C109.471 15.984 109.294 16.6467 108.939 17.188C108.603 17.7293 108.155 18 107.595 18C107.241 18 106.951 17.916 106.727 17.748C106.522 17.58 106.419 17.3467 106.419 17.048C106.419 16.9173 106.438 16.768 106.475 16.6C106.513 16.432 106.541 16.3107 106.559 16.236C106.653 15.956 106.699 15.6947 106.699 15.452C106.699 15.2093 106.634 15.0227 106.503 14.892C106.391 14.7613 106.223 14.696 105.999 14.696C105.57 14.696 105.169 14.892 104.795 15.284C104.422 15.6573 104.123 16.1707 103.899 16.824C103.675 17.4773 103.563 18.196 103.563 18.98C103.563 21.1453 104.506 22.228 106.391 22.228C107.157 22.228 107.978 21.976 108.855 21.472C109.751 20.9493 110.629 20.1747 111.487 19.148C111.711 18.8867 111.963 18.756 112.243 18.756C112.486 18.756 112.673 18.868 112.803 19.092C112.953 19.316 113.027 19.624 113.027 20.016C113.027 20.7253 112.85 21.304 112.495 21.752C111.618 22.8347 110.563 23.6747 109.331 24.272C108.118 24.8507 106.942 25.14 105.803 25.14ZM113.934 25.14C112.777 25.14 111.853 24.72 111.162 23.88C110.472 23.04 110.126 21.9387 110.126 20.576C110.126 19.0827 110.472 17.6733 111.162 16.348C111.853 15.004 112.768 13.9307 113.906 13.128C115.064 12.3067 116.286 11.896 117.574 11.896C117.985 11.896 118.256 11.98 118.386 12.148C118.536 12.2973 118.657 12.5773 118.75 12.988C119.142 12.9133 119.553 12.876 119.982 12.876C120.897 12.876 121.354 13.2027 121.354 13.856C121.354 14.248 121.214 15.1813 120.934 16.656C120.505 18.8027 120.29 20.296 120.29 21.136C120.29 21.416 120.356 21.64 120.486 21.808C120.636 21.976 120.822 22.06 121.046 22.06C121.401 22.06 121.83 21.836 122.334 21.388C122.838 20.9213 123.52 20.1747 124.378 19.148C124.602 18.8867 124.854 18.756 125.134 18.756C125.377 18.756 125.564 18.868 125.694 19.092C125.844 19.316 125.918 19.624 125.918 20.016C125.918 20.7627 125.741 21.3413 125.386 21.752C124.621 22.704 123.809 23.5067 122.95 24.16C122.092 24.8133 121.261 25.14 120.458 25.14C119.842 25.14 119.273 24.9347 118.75 24.524C118.246 24.0947 117.864 23.516 117.602 22.788C116.632 24.356 115.409 25.14 113.934 25.14ZM114.942 22.312C115.353 22.312 115.745 22.0693 116.118 21.584C116.492 21.0987 116.762 20.4547 116.93 19.652L117.966 14.5C117.182 14.5187 116.454 14.8173 115.782 15.396C115.129 15.956 114.606 16.7027 114.214 17.636C113.822 18.5693 113.626 19.5587 113.626 20.604C113.626 21.1827 113.738 21.612 113.962 21.892C114.205 22.172 114.532 22.312 114.942 22.312ZM125.631 25.14C124.921 25.14 124.417 24.7667 124.119 24.02C123.839 23.2733 123.699 22.0787 123.699 20.436C123.699 18.0093 124.044 15.704 124.735 13.52C124.903 12.9787 125.173 12.5867 125.547 12.344C125.939 12.0827 126.48 11.952 127.171 11.952C127.544 11.952 127.805 11.9987 127.955 12.092C128.104 12.1853 128.179 12.3627 128.179 12.624C128.179 12.9227 128.039 13.5947 127.759 14.64C127.572 15.3867 127.423 16.04 127.311 16.6C127.199 17.16 127.105 17.8507 127.031 18.672C127.647 17.0667 128.337 15.76 129.103 14.752C129.868 13.744 130.615 13.0253 131.343 12.596C132.089 12.1667 132.771 11.952 133.387 11.952C134.6 11.952 135.207 12.5587 135.207 13.772C135.207 14.0147 135.123 14.6027 134.955 15.536C134.805 16.2827 134.731 16.7493 134.731 16.936C134.731 17.5893 134.964 17.916 135.431 17.916C135.953 17.916 136.625 17.5053 137.447 16.684C137.689 16.4413 137.941 16.32 138.203 16.32C138.445 16.32 138.632 16.432 138.763 16.656C138.912 16.8613 138.987 17.1413 138.987 17.496C138.987 18.1867 138.8 18.728 138.427 19.12C137.904 19.6613 137.288 20.128 136.579 20.52C135.888 20.8933 135.151 21.08 134.367 21.08C133.377 21.08 132.621 20.828 132.099 20.324C131.595 19.82 131.343 19.1387 131.343 18.28C131.343 18 131.371 17.72 131.427 17.44C131.464 17.0667 131.483 16.8147 131.483 16.684C131.483 16.3853 131.38 16.236 131.175 16.236C130.895 16.236 130.521 16.5533 130.055 17.188C129.607 17.804 129.159 18.6253 128.711 19.652C128.263 20.6787 127.899 21.7613 127.619 22.9C127.413 23.7773 127.171 24.3747 126.891 24.692C126.629 24.9907 126.209 25.14 125.631 25.14ZM146.409 19.596C146.652 19.596 146.838 19.708 146.969 19.932C147.118 20.156 147.193 20.464 147.193 20.856C147.193 21.528 147.034 22.1067 146.717 22.592C146.194 23.3947 145.504 24.02 144.645 24.468C143.805 24.916 142.797 25.14 141.621 25.14C139.829 25.14 138.438 24.608 137.449 23.544C136.46 22.4613 135.965 21.0053 135.965 19.176C135.965 17.888 136.236 16.6933 136.777 15.592C137.318 14.472 138.065 13.5853 139.017 12.932C139.988 12.2787 141.08 11.952 142.293 11.952C143.376 11.952 144.244 12.2787 144.897 12.932C145.55 13.5667 145.877 14.4347 145.877 15.536C145.877 16.824 145.41 17.9347 144.477 18.868C143.562 19.7827 141.994 20.5107 139.773 21.052C140.221 21.9107 140.977 22.34 142.041 22.34C142.806 22.34 143.432 22.1627 143.917 21.808C144.421 21.4533 145 20.856 145.653 20.016C145.877 19.736 146.129 19.596 146.409 19.596ZM141.817 14.696C141.126 14.696 140.538 15.0973 140.053 15.9C139.586 16.7027 139.353 17.6733 139.353 18.812V18.868C140.454 18.6067 141.322 18.2147 141.957 17.692C142.592 17.1693 142.909 16.5627 142.909 15.872C142.909 15.5173 142.806 15.2373 142.601 15.032C142.414 14.808 142.153 14.696 141.817 14.696Z" fill="#FFAAAA"/>
</svg>
